ply
format ascii 1.0
element face 0property list uchar int vertex_indices
element vertex 786
property float x
property float y
property float z
property uchar diffuse_red
property uchar diffuse_green
property uchar diffuse_blue
end_header
0 0 0 255 0 0
-1.80478 -4.20141 -8.94485 155 164 165
3.80865 -0.864168 -8.55261 133 143 145
4.75229 -2.09966 -8.4098 1 12 18
4.62281 0.322609 -8.16531 47 49 63
4.21833 1.50383 -8.17527 45 51 63
3.82342 -1.43122 -8.64753 15 27 34
3.36553 0.879389 -8.59215 48 67 40
3.56123 -3.89883 -9.09931 16 24 29
3.34895 -1.54253 -8.83446 28 38 46
4.16214 -1.70534 -8.49544 13 21 29
3.28325 -0.961866 -9.01996 17 30 36
4.73936 -2.23352 -8.43766 86 107 111
3.88877 -0.414591 -8.44471 52 57 63
2.84075 -4.24301 -9.3437 74 32 60
3.26994 -1.1527 -9.00593 15 22 32
4.0756 0.480614 -8.27012 20 30 40
3.43551 -0.850642 -8.78152 115 138 149
4.13379 -3.37853 -8.69652 97 123 122
4.71242 -0.832742 -8.27267 141 146 153
4.00718 2.25608 -7.98835 36 38 51
2.73903 2.28165 -8.70551 19 38 60
0.877664 -0.884392 -9.1235 6 13 26
4.12553 -0.65909 -8.43101 159 164 167
4.01057 -1.45995 -8.53429 85 110 106
4.58398 -3.16147 -8.58929 100 124 124
4.39074 -3.35096 -8.57399 50 66 76
3.92926 -1.36865 -8.54754 85 113 111
4.39246 0.311597 -8.22355 47 53 65
3.99152 -0.75099 -8.52911 160 166 166
3.33541 -1.61764 -8.96026 20 29 37
1.0277 -0.885917 -8.84385 14 18 30
3.76427 -0.292854 -8.46156 152 157 160
4.11377 -1.59695 -8.50029 14 23 30
4.26178 -3.39992 -8.66353 6 15 24
3.68112 -3.84975 -8.99761 14 19 31
3.93033 -1.6835 -8.61291 12 22 33
1.88423 0.678088 -8.91762 50 66 77
3.7678 1.74306 -8.19026 32 37 49
3.31596 -1.20681 -8.98014 58 72 74
4.0656 0.365245 -8.29185 137 143 147
3.56705 -2.48804 -8.92428 14 22 30
4.6496 -0.199685 -8.22419 130 136 141
1.94943 -4.13597 -9.70679 21 31 38
3.88807 0.0331132 -8.35543 43 46 57
3.12804 1.23619 -8.64735 33 56 82
4.07018 -1.4965 -8.53691 12 22 30
3.85307 -1.67582 -8.64342 107 128 126
3.83357 -0.196322 -8.42512 52 60 67
4.73797 -0.0664333 -8.19628 43 45 55
3.29824 -1.51916 -8.99967 20 25 34
3.63309 -2.54663 -8.86325 11 19 30
3.80862 -1.23805 -8.60399 13 22 31
3.5099 -3.41063 -9.08816 30 33 46
4.00184 1.19796 -8.16617 59 60 72
3.63128 -0.403679 -8.59102 46 93 117
3.65145 -1.32108 -8.66781 109 129 128
1.05026 -0.745082 -8.80456 12 21 28
3.92205 -1.7523 -8.60181 97 120 117
4.71059 0.255281 -8.17518 138 145 150
0.915082 -1.10664 -8.99728 6 15 23
3.70057 -3.77268 -9.11255 109 133 135
3.71099 -1.18094 -8.65304 15 24 34
2.98315 1.11293 -8.82481 54 91 115
3.69137 -1.43393 -8.7007 8 19 28
1.07871 -1.48183 -8.85086 11 14 27
4.00015 0.247203 -8.32413 39 41 54
3.74556 -0.0379213 -8.44525 157 165 164
3.39186 -0.558603 -8.81653 151 157 157
3.21028 2.19861 -8.38584 31 48 68
3.36874 -0.573604 -8.81104 144 153 152
3.61108 -2.2794 -8.84872 6 21 29
4.6767 -0.631211 -8.28536 132 148 156
4.49414 1.43879 -7.99996 55 54 68
3.75619 -0.0741815 -8.44032 154 159 162
4.17407 0.736475 -8.21616 142 148 141
4.76795 -0.697861 -8.26261 12 34 55
4.3853 0.216243 -8.22743 37 39 51
3.61807 -1.13844 -8.72623 10 19 28
3.84437 -2.2003 -8.67157 107 131 131
4.07023 0.337633 -8.29504 145 150 154
3.59244 -1.1848 -8.69793 11 22 31
4.00556 1.58081 -8.11246 146 149 154
4.04277 2.16926 -7.99562 134 136 140
4.26992 2.26716 -7.92761 34 30 47
4.27838 -3.05822 -8.61817 5 12 20
4.16612 1.398 -8.11578 47 54 66
3.79212 -0.403681 -8.40986 78 95 111
2.9303 1.41037 -8.81031 42 82 104
2.04708 -4.0161 -9.48783 15 21 32
3.79079 -0.770754 -8.52728 46 50 58
4.18743 1.36865 -8.09558 52 57 69
4.66794 1.39351 -8.04168 148 151 156
4.47361 0.223771 -8.20641 148 153 157
3.40471 1.81568 -8.33075 155 159 162
4.59011 -0.553985 -8.2759 102 132 141
3.85824 1.46113 -8.09917 155 159 161
3.72586 -2.29672 -8.81307 10 21 27
3.73803 -3.91406 -8.97563 6 19 27
3.19176 2.2147 -8.35701 22 36 53
3.10855 0.487298 -8.81974 48 53 47
3.92634 0.123065 -8.37687 144 149 152
4.14323 1.21727 -8.14571 151 156 160
4.06274 -1.98208 -8.58815 109 130 131
0.956084 -0.982016 -8.97393 6 14 26
4.06345 2.15254 -8.0247 139 141 145
3.70033 0.0154799 -8.4108 161 167 167
4.17996 -3.0925 -8.63551 3 14 20
3.22647 -1.2595 -8.99154 142 147 145
4.21555 1.63733 -8.04918 144 146 151
3.43642 -2.80868 -9.04875 31 35 43
3.97217 2.15264 -8.0274 52 53 62
4.08415 -2.14776 -8.59255 107 131 131
3.46537 -1.32893 -8.94337 110 132 130
4.36121 1.21006 -8.15358 153 156 161
3.51619 -1.10632 -8.77265 10 21 28
4.69047 -2.37469 -8.45034 45 56 62
3.76336 -0.900241 -8.53604 56 64 73
3.89517 -0.732004 -8.53405 151 158 160
2.94641 1.40649 -8.8291 35 66 90
4.00432 -0.239283 -8.41103 154 162 164
4.27649 0.275902 -8.21512 149 154 158
3.74219 -2.56872 -8.79541 108 129 129
3.81017 -2.57657 -8.76517 8 15 25
2.9826 1.22153 -8.81401 42 87 112
4.53687 0.127602 -8.15393 154 157 162
4.83667 -3.45478 -8.56734 92 111 115
3.93162 -1.57236 -8.55989 106 126 127
4.19033 -0.370466 -8.33706 82 110 124
4.82922 -0.298274 -8.23428 3 24 45
4.34622 1.28347 -8.09104 151 154 159
3.20058 -1.07527 -9.00184 147 153 151
3.87292 -0.728469 -8.53865 149 157 156
4.91846 -3.14826 -8.52102 1 9 15
3.41898 -1.09695 -8.83864 10 20 30
3.28471 -1.32568 -9.00743 18 28 32
3.86996 -0.934502 -8.52814 15 27 35
4.32943 0.472494 -8.25666 146 154 157
2.95713 1.75942 -8.69259 100 130 141
1.38907 -4.03368 -9.91581 134 147 144
4.67837 -3.41717 -8.56398 3 14 19
3.9666 -0.11799 -8.39844 143 151 150
3.74383 -1.35545 -8.67715 15 23 31
1.39208 -4.04674 -10.0866 115 131 138
3.80234 -2.48856 -8.76171 7 16 24
4.664 1.35791 -8.04196 146 149 156
4.5034 -0.640226 -8.29604 31 78 105
0.215385 -4.04404 -9.15163 158 168 169
3.60983 -3.13624 -9.00449 97 122 119
4.18345 2.26322 -7.94412 60 57 71
4.80261 -3.16886 -8.52142 2 11 18
3.9509 -3.24598 -8.7885 5 14 21
4.23495 0.765497 -8.18915 151 156 153
3.83182 1.73894 -8.11689 39 42 57
4.32215 2.31259 -7.91174 170 174 178
2.40393 -4.01198 -9.20948 142 153 155
3.95211 2.13288 -7.99229 64 65 74
3.9595 -0.267462 -8.42341 149 155 157
4.62953 -0.271519 -8.23533 18 41 66
3.63848 -4.00708 -9.04328 117 139 139
-1.49847 -4.09739 -10.22 9 18 23
1.14727 -4.05079 -10.3635 103 46 61
2.40202 -4.25448 -9.02263 55 121 152
4.44248 -0.810622 -8.30805 146 154 157
1.6053 -4.02965 -10.3078 100 46 56
3.24472 0.739292 -8.71918 146 149 132
2.2071 -4.09326 -9.50008 17 26 37
4.05414 -3.25822 -8.74511 3 14 17
4.42446 -0.176478 -8.25721 138 147 149
2.59146 -4.13831 -9.32215 131 122 127
1.19697 -4.08739 -9.09705 118 97 107
3.82735 1.6753 -8.18175 141 146 149
4.3077 1.55265 -8.0586 47 51 62
3.80307 -2.35993 -8.75113 10 19 26
4.24988 -0.313008 -8.28204 91 126 143
3.92073 0.180852 -8.3551 151 156 159
3.41476 -1.32359 -8.97628 107 128 126
3.80105 -3.67452 -8.91425 4 14 23
-0.238754 -4.07205 -10.6218 109 129 137
3.16926 1.6158 -8.53836 7 36 60
3.32848 -1.11835 -8.90907 13 25 32
3.41991 -1.17607 -8.81962 7 20 27
4.13591 2.20176 -7.97914 134 136 140
1.60666 -4.30476 -9.84058 154 164 166
4.29412 0.637566 -8.17523 57 91 44
3.09235 2.32199 -8.39411 163 172 172
3.29436 -0.124836 -8.87927 156 162 158
3.16103 1.61096 -8.50761 7 34 55
3.90743 -3.76177 -8.77376 4 11 17
3.64429 -1.4766 -8.7252 102 126 124
4.4672 2.17983 -7.93472 137 138 143
4.65478 1.1438 -8.03938 138 141 146
1.02425 -0.704209 -8.80107 49 62 66
4.35985 -0.228269 -8.31198 55 59 76
3.98681 -0.152201 -8.42175 148 156 156
3.64435 -0.178192 -8.56902 60 63 69
3.33325 1.68475 -8.39112 51 97 119
3.58478 -3.57368 -9.05376 18 26 33
3.75737 1.86079 -7.97819 151 155 158
4.25263 -4.05612 -8.70048 101 126 129
3.7594 -2.402 -8.763 8 18 27
4.59635 -0.283929 -8.23246 28 60 87
3.28332 2.07232 -8.457 36 70 94
3.06594 0.565078 -8.81291 147 153 152
-1.60118 -3.91184 -10.2232 0 4 9
4.26595 2.16395 -7.92932 137 139 144
1.45084 -4.03367 -9.75248 45 51 58
3.29637 2.20928 -8.35516 45 50 67
3.47856 -0.161057 -8.71072 64 64 71
3.73308 1.40971 -8.10567 155 160 163
3.6017 -2.40086 -8.89285 4 17 25
3.3671 -3.64613 -9.10534 147 152 156
3.0804 -4.20125 -9.2778 132 113 124
4.08445 -2.22021 -8.60455 106 127 129
4.84503 -0.617243 -8.26581 22 50 77
4.08109 0.753853 -8.2472 64 66 70
3.61021 -0.85111 -8.62685 103 132 147
3.73081 -0.700535 -8.54305 143 152 152
3.27444 1.88395 -8.39424 26 40 62
3.85309 1.65498 -8.19156 149 153 156
3.57989 -3.39855 -9.03734 27 32 41
3.84844 -2.45289 -8.70337 6 16 23
4.36138 2.24363 -7.90762 38 40 51
3.44012 -3.65437 -9.08385 148 154 157
3.68061 -1.36781 -8.67403 103 127 124
0.81047 -4.16268 -10.2941 43 52 57
3.97228 -3.30015 -8.78308 2 14 20
2.92662 1.57297 -8.77003 48 95 116
3.98499 1.93486 -8.05166 145 148 152
-0.332756 -4.04565 -11.2359 126 138 141
4.03417 0.861657 -8.19871 149 152 157
3.75506 -1.67527 -8.65853 25 29 40
3.53016 -0.932592 -8.69134 9 22 31
1.09457 -4.06567 -10.0044 41 46 54
4.13735 -3.22092 -8.70475 23 33 38
3.73125 -2.84305 -8.84873 6 18 26
3.18574 -0.36484 -8.93192 50 64 31
0.266285 -4.11701 -10.256 36 44 52
4.00976 0.692909 -8.23266 148 151 147
-1.11039 -4.0095 -10.4509 99 125 132
3.51608 -0.261819 -8.55564 154 162 162
4.32561 0.375252 -8.21062 29 33 43
3.4339 1.98722 -8.28677 144 149 153
3.33266 1.99715 -8.31018 50 101 129
-1.21277 -4.05593 -12.1464 22 30 36
0.907455 -4.08558 -9.99856 47 52 60
4.56576 -0.0509673 -8.24144 152 155 159
3.45418 -3.37491 -9.1199 148 153 156
4.81084 -0.226418 -8.21729 72 98 64
3.62992 -2.36041 -8.8485 6 17 27
4.09337 2.31772 -7.93095 181 189 191
2.88118 2.08039 -8.7432 45 96 123
4.03286 1.49668 -8.11552 143 146 151
3.68568 1.7158 -8.20086 144 148 154
3.69191 -2.3526 -8.78965 2 15 25
3.98151 1.97015 -8.05027 148 151 156
3.82863 1.89031 -8.04707 153 154 159
3.4218 0.628745 -8.66781 157 161 160
3.38383 -2.42064 -9.04257 46 51 59
4.37946 -3.11177 -8.54482 97 121 121
4.42524 1.315 -8.03765 146 149 154
3.3937 -0.285889 -8.74993 147 152 152
-1.01948 -3.99284 -12.1821 56 97 117
3.13604 0.571972 -8.78652 74 82 45
3.77986 -1.27572 -8.60123 13 23 30
3.35966 -0.388701 -8.77892 147 154 153
3.33654 0.757961 -8.55456 61 75 45
4.03647 1.03336 -8.19217 76 83 91
3.61132 -4.42294 -9.14119 30 65 84
4.56438 0.253499 -8.16288 137 145 149
3.9734 0.887743 -8.19503 154 158 162
4.10373 0.498278 -8.23305 18 29 39
4.53253 -0.507144 -8.27549 15 48 75
3.29822 -0.476987 -8.85606 48 53 56
4.04726 2.04908 -8.03356 65 65 72
2.91784 -4.20502 -9.19678 113 43 55
4.16732 2.18231 -7.991 139 142 146
4.46181 0.55882 -8.19317 81 98 45
4.73037 -0.226598 -8.21358 36 44 57
3.58378 -1.7318 -8.81853 112 137 134
3.18676 1.45644 -8.57675 87 123 142
3.85224 -3.73959 -8.89178 2 12 20
3.21447 0.857 -8.60508 145 149 148
4.29524 -0.129835 -8.24751 152 156 161
2.98684 -4.16618 -9.229 153 147 147
3.76998 -4.19822 -9.01915 136 154 155
3.5879 -0.245871 -8.5847 149 155 155
3.14236 -0.771691 -9.02914 151 157 156
4.082 0.102576 -8.32928 156 161 164
3.28444 -0.572414 -8.86268 35 44 51
4.16247 0.539397 -8.21837 139 144 148
4.6588 0.388499 -8.08582 140 145 150
3.26409 0.797306 -8.6544 62 79 47
4.40349 0.382245 -8.20163 124 134 136
4.10156 -1.78519 -8.49447 105 127 126
3.61356 -4.39218 -9.14017 44 81 99
3.76627 -4.04821 -8.95742 110 136 135
3.71829 1.88443 -8.1943 150 153 157
4.31229 -0.397275 -8.3557 53 69 88
0.583049 -3.35088 -15.4925 84 117 131
4.53679 0.45876 -8.10175 152 155 160
3.97302 2.07292 -8.05146 138 141 146
4.24944 -2.16965 -8.54887 73 97 97
4.26036 -3.14409 -8.64633 78 100 99
4.23005 -0.250242 -8.28383 100 114 125
4.02647 1.03714 -8.18631 86 91 100
3.93884 -1.45783 -8.55841 20 29 38
3.97547 0.455799 -8.28524 96 104 108
3.29701 2.07854 -8.35237 85 124 140
4.51191 -0.0657002 -8.26196 154 157 162
3.38783 -0.159529 -8.72039 152 156 155
3.15905 2.29508 -8.36862 68 74 88
4.21833 2.30374 -7.91192 166 172 173
3.19689 2.03889 -8.39102 109 137 148
2.57473 -4.07528 -10.2153 59 38 46
4.46506 -0.0767531 -8.24138 149 154 157
4.84102 -0.768879 -8.2819 94 128 144
4.2919 0.583679 -8.19508 50 81 43
3.91898 0.882207 -8.18998 157 162 165
4.82454 -2.23377 -8.42944 4 13 21
-0.102972 -4.19558 -10.2465 31 36 45
4.20779 2.12149 -7.91405 145 146 150
4.83318 -0.741887 -8.27259 92 127 144
3.22814 1.62099 -8.47844 51 103 131
3.95808 0.196481 -8.33422 148 153 156
2.9141 1.96338 -8.6864 17 61 87
3.14489 0.434206 -8.81062 144 151 149
4.86318 -0.827349 -8.27106 84 120 138
4.44536 -0.0659809 -8.23426 146 151 154
4.56053 -0.932288 -8.32468 5 18 27
4.66295 -2.21933 -8.45777 11 19 30
2.98969 2.13575 -8.53574 107 132 143
3.82684 -2.79743 -8.81775 8 18 26
4.00765 1.8034 -8.0368 145 148 153
3.6913 2.02362 -8.12235 150 152 156
3.459 -2.71224 -9.05402 26 32 40
4.79061 0.0970191 -8.2139 146 150 153
4.35339 1.40974 -8.07462 49 51 64
2.97556 -4.15584 -9.25426 151 142 144
3.50552 -4.2316 -9.07434 143 153 156
4.02515 -0.00789081 -8.37952 149 153 156
4.58985 -0.142605 -8.24084 138 144 148
4.21059 0.551702 -8.19543 136 144 147
4.02356 1.81961 -8.04942 144 147 152
1.64233 -4.08034 -10.1806 113 136 144
3.19098 -0.268891 -8.87801 83 93 39
4.26055 -0.531727 -8.34068 136 148 154
4.57212 -0.760468 -8.31643 97 129 140
4.35562 -0.517317 -8.37262 143 152 157
3.70635 2.03174 -8.12283 148 151 154
3.87732 -4.075 -8.70049 86 117 122
4.38844 2.14826 -7.91904 50 50 63
3.45456 -2.31532 -8.95345 113 137 135
3.87083 -3.23514 -9.09616 43 55 61
3.58066 -4.22796 -9.1124 139 150 152
4.1707 0.625406 -8.23183 59 69 68
2.76895 -4.09628 -10.2485 63 46 52
4.7865 0.326781 -8.15312 143 146 151
1.30718 -3.96271 -12.1449 87 115 124
0.644507 -3.80128 -14.1867 36 59 77
3.31283 -0.846547 -8.85896 60 111 133
4.03275 -4.0666 -8.80083 41 62 71
-0.0190348 -4.04863 -9.78459 41 47 53
4.53205 1.61002 -8.05569 147 150 155
4.34595 -0.534142 -8.31022 145 154 159
4.60934 -2.35121 -8.46381 94 117 120
4.55417 1.89836 -7.96686 140 142 147
3.7322 -2.6658 -8.76701 101 127 128
3.28022 -0.388527 -8.79544 53 58 60
1.04239 -3.98762 -12.2202 93 124 135
-0.886984 -3.97164 -10.1289 2 9 14
3.69902 -0.387952 -8.56139 92 129 144
3.18394 2.0241 -8.3948 108 135 149
4.407 -1.84383 -8.50039 105 129 129
3.87135 -3.80923 -8.89464 1 12 18
4.0417 -0.00433217 -8.35325 153 158 161
4.59727 0.406101 -8.16534 141 146 150
4.14513 -0.268843 -8.30558 150 155 159
4.40195 -0.736367 -8.41857 70 96 117
3.14074 0.70636 -8.77995 118 120 46
3.23661 -0.51761 -8.94088 76 104 72
3.805 -3.37511 -8.849 5 16 23
1.81965 0.635093 -8.96999 116 147 143
4.1962 2.08014 -7.977 142 146 149
3.87802 0.238928 -8.36097 127 132 135
-1.08865 -3.34562 -15.6821 7 43 68
3.6879 1.90087 -8.27606 149 153 156
3.67137 2.03739 -8.15971 155 156 160
3.42882 2.1132 -8.27364 149 153 154
4.80102 0.322872 -8.15827 148 151 156
4.68911 1.87983 -7.93392 138 141 146
4.44811 0.182417 -8.22911 139 148 148
4.65447 -2.42993 -8.45221 32 41 47
3.03925 1.58933 -8.66121 44 95 120
4.56935 1.88914 -7.9492 143 144 148
3.80643 -0.524736 -8.49728 76 116 134
3.63152 -0.852878 -8.5122 88 122 136
3.77935 0.806809 -8.31066 159 165 165
3.10585 -4.18712 -9.19847 132 111 118
3.03013 -4.27132 -9.20282 144 151 155
3.73376 0.179425 -8.40734 159 165 165
4.59802 0.42109 -8.16931 148 151 156
3.9039 -0.19305 -8.41471 51 54 62
4.16254 -0.464011 -8.35592 156 161 164
4.07671 1.42635 -8.09952 44 50 63
4.63803 1.91591 -7.99473 147 148 153
-4.4779 -1.37436 -24.5623 65 66 65
3.616 2.03457 -8.1246 153 154 158
2.5395 -4.18766 -8.97663 147 160 165
4.43947 0.614188 -8.17505 146 149 139
4.17884 0.987679 -8.20096 153 157 161
4.81738 -2.17518 -8.41208 7 14 22
4.1418 -0.273697 -8.37814 152 162 163
4.27686 -0.633636 -8.34199 144 150 155
4.15319 0.968938 -8.20698 151 154 159
-0.477983 -4.04227 -11.2513 112 60 72
4.06357 1.67475 -8.05321 57 59 69
3.88034 -1.10204 -8.64624 112 132 131
1.54314 -4.06739 -10.2594 118 139 147
3.38954 1.01754 -8.50711 151 153 145
4.65544 1.88612 -7.91827 143 145 150
0.329224 -3.52856 -15.0804 27 55 83
2.22732 -4.30305 -8.96828 156 164 166
3.8662 -0.62024 -8.49588 78 84 88
3.5301 0.383306 -8.48748 153 161 161
1.05375 -0.656545 -8.77861 61 78 78
3.55861 -1.86551 -8.68521 110 134 134
4.51243 -0.430435 -8.264 108 134 149
-1.74892 -4.16625 -8.99328 97 89 94
4.57179 -2.45301 -8.48419 102 124 124
1.89924 -3.9116 -9.59956 72 97 108
3.98788 1.2958 -8.17353 138 147 148
4.00658 1.77905 -8.03121 147 150 155
0.773833 -3.84462 -12.5944 44 74 91
1.18544 -4.05958 -10.2511 113 125 129
3.46227 -2.35133 -8.97018 115 139 136
2.93057 1.64789 -8.7053 68 112 131
4.47586 -0.383697 -8.25498 123 145 156
3.28771 2.13708 -8.31133 86 122 136
4.70846 -0.291858 -8.2065 46 99 128
3.76134 0.216699 -8.4066 157 163 163
3.58356 -1.09984 -8.7646 29 39 45
1.21883 -4.01806 -10.3563 111 120 125
3.91742 2.0071 -8.0521 137 141 144
3.55923 2.03761 -8.27314 151 152 154
0.978865 -1.48195 -8.96781 76 105 101
3.71816 -2.76464 -8.83529 95 120 121
3.7944 0.397919 -8.3742 152 157 160
-0.27129 -4.19316 -8.67019 6 7 9
3.77508 -1.61137 -8.67801 35 44 53
4.34075 1.72287 -8.01799 144 148 151
4.56853 2.23522 -7.90974 134 135 140
4.41932 2.02128 -7.93953 142 145 150
3.84741 2.15165 -8.05441 142 144 145
0.964234 -3.83268 -13.781 37 60 78
2.88119 2.36702 -8.67955 156 165 168
1.64189 -4.10058 -9.89876 22 31 39
1.25406 -1.84951 -8.85539 139 146 144
4.27001 -2.09511 -8.50935 100 124 124
4.01675 0.106639 -8.35104 152 156 159
0.927524 -4.02769 -10.416 84 98 112
1.89664 -3.96554 -9.65339 106 128 130
3.11689 -0.294507 -8.93446 139 146 138
4.43451 1.73153 -8.00787 143 144 149
3.65249 -0.453422 -8.55363 39 89 115
1.36535 -3.99873 -11.6934 96 125 134
3.10602 1.31646 -8.60329 58 107 128
2.89774 2.38091 -8.59764 164 172 175
2.79811 2.35065 -8.67953 162 171 172
4.61977 -0.433176 -8.24742 59 109 134
0.306205 -4.03053 -11.2298 122 109 118
3.3868 -3.92579 -9.15441 147 153 153
4.37746 -0.673818 -8.34875 117 142 153
3.747 2.25932 -7.99045 164 166 165
4.44888 -0.58148 -8.33687 61 100 125
4.2174 0.0780888 -8.28799 133 136 139
2.02661 -4.07642 -9.71877 6 16 26
4.04813 -1.59508 -8.58507 89 112 115
4.44851 1.94422 -7.94747 142 145 150
-0.959582 2.09791 -23.7186 50 47 44
3.03893 1.44305 -8.60863 31 78 106
4.4978 -1.74375 -8.52562 104 129 129
3.60562 -3.27153 -9.05235 33 46 49
3.68552 -0.534415 -8.53275 116 143 155
2.87669 1.31386 -8.84168 145 152 152
3.71401 2.27098 -8.00751 168 170 169
4.19096 -0.169996 -8.32603 149 153 156
4.47553 1.80771 -7.97127 143 144 150
4.77885 -0.558027 -8.26524 92 127 147
4.29694 -2.03282 -8.51468 104 126 126
3.83732 -0.619644 -8.50852 59 65 73
0.996227 -4.03711 -12.001 71 106 125
2.42224 -4.23954 -9.06438 41 104 137
4.59435 1.75389 -8.00113 147 148 152
2.85209 1.7651 -8.80471 52 87 111
-0.896203 -3.55824 -15.3983 12 47 71
3.58529 1.79181 -8.12997 56 58 68
2.36736 -4.35052 -8.95277 158 164 167
4.50854 0.527139 -8.1757 146 151 154
4.42041 -0.278003 -8.28336 107 137 150
2.83768 1.61559 -8.81384 132 139 145
3.78799 0.380838 -8.37594 147 153 156
0.967021 -1.20147 -9.00082 82 110 105
3.27474 1.59177 -8.41859 87 130 147
4.44067 0.648809 -8.13696 152 153 155
4.50164 -2.89754 -8.56965 92 115 116
0.0567283 -4.01397 -13.6044 32 56 74
4.47599 -0.505008 -8.34544 132 147 156
4.38615 0.0439232 -8.23798 148 152 156
4.49829 0.430934 -8.23809 130 134 140
4.54757 -0.667108 -8.30184 63 108 127
-1.08499 0.317839 -24.185 53 48 45
3.19715 -0.885355 -9.01326 123 138 142
3.48519 0.87057 -8.50385 154 157 145
3.75314 -0.158655 -8.57928 58 62 69
-0.00818066 -4.06447 -12.2558 51 87 109
2.70706 2.22719 -8.76381 120 131 134
3.87591 2.29937 -8.01185 169 171 173
3.92894 2.18544 -7.98379 96 99 107
3.63285 -4.23886 -9.20009 143 153 155
3.56138 -3.37519 -9.09686 98 123 120
-0.200605 -4.03206 -11.2432 134 115 115
2.66749 -4.17219 -8.80284 63 101 113
-0.00246192 -3.957 -12.4592 38 73 95
-1.6332 -3.96716 -10.2262 3 11 14
-0.219512 -4.06108 -10.4869 79 113 125
1.20184 -1.69161 -8.8537 144 151 149
3.07855 -4.08828 -10.5415 78 79 83
-0.394791 -4.02629 -8.78149 119 114 118
3.49513 0.344079 -8.62801 134 137 141
4.14391 1.59404 -8.06392 50 54 65
1.41783 -3.88304 -12.733 45 74 90
1.01903 -4.08964 -8.22313 13 14 16
4.09482 1.95548 -8.04233 147 151 154
4.24733 -2.03157 -8.5594 8 22 26
3.92727 0.719269 -8.21645 156 162 162
-0.0262872 -3.91355 -12.4266 36 70 94
3.86528 0.50003 -8.3443 148 154 157
3.66128 -1.11195 -8.65835 71 91 92
3.86144 2.30488 -7.97595 182 186 188
4.68139 0.0488256 -8.18784 144 147 154
4.44077 -0.981869 -8.21028 5 19 28
2.29475 -4.20506 -9.21497 151 162 168
4.69794 -0.552542 -8.25547 88 124 142
4.26034 1.94857 -8.00648 128 131 135
2.74785 -3.96908 -10.493 63 66 71
2.97991 1.95177 -8.60929 36 93 123
4.725 -1.88182 -8.32482 99 123 123
4.70835 -0.167651 -8.20427 49 53 62
0.990082 -1.07978 -8.94238 90 120 114
-0.615981 -3.96758 -10.3818 99 122 131
3.18254 2.32371 -8.32902 172 176 179
2.77571 -4.11085 -9.4406 113 98 114
2.90118 2.34125 -8.57974 160 169 171
-1.43556 -4.01693 -12.0074 22 32 38
2.05693 0.697978 -8.89688 173 193 187
4.88838 -2.78239 -8.65865 97 118 121
3.74405 -3.16969 -9.08307 99 125 123
2.95601 1.95995 -8.55815 38 95 124
4.06591 -1.40965 -8.52193 98 122 120
4.47517 -0.603229 -8.29158 54 105 132
4.4608 -0.505647 -8.35511 136 150 159
0.630237 -4.0366 -10.466 88 112 125
3.60602 -0.782158 -8.71324 94 123 136
4.40868 -0.181254 -8.27183 133 142 144
3.66221 -3.36744 -8.99328 29 38 49
1.0078 -4.21224 -8.31375 15 17 17
0.349079 -4.07232 -12.1259 68 101 118
4.6243 -3.0716 -8.62825 100 123 120
2.81707 -2.90325 -9.51961 149 160 156
1.98065 -4.02796 -10.3492 94 103 109
3.20106 1.96933 -8.45017 42 90 117
4.30241 -0.302517 -8.32532 94 129 145
0.00937713 -4.01193 -11.342 56 93 111
3.01153 1.3063 -8.7043 49 103 129
3.10991 2.1696 -8.48271 91 124 140
4.13278 -1.89533 -8.4953 102 126 126
4.13407 0.191105 -8.28551 132 137 139
3.67896 2.34207 -8.01821 144 149 156
4.95551 -2.77046 -8.45953 88 112 116
4.8876 -2.31871 -8.47084 54 68 76
1.82597 -3.65403 -9.32376 114 120 126
3.72089 -3.32525 -8.89696 28 36 46
3.08106 1.40884 -8.65449 27 82 109
2.08332 -4.03158 -11.4647 54 79 87
4.7096 -3.89668 -8.55774 40 51 56
3.81239 -3.29969 -8.87559 25 35 45
2.64542 -4.25322 -8.77401 153 161 164
2.68066 -4.21055 -8.95639 122 139 149
4.42285 -0.482072 -8.41532 138 149 155
4.8766 -1.84067 -8.40802 96 123 124
3.5172 0.500406 -8.57575 156 162 160
3.00902 1.3216 -8.75245 48 102 127
2.97987 -4.10944 -9.30855 124 106 119
4.77842 0.277667 -8.15395 130 132 138
4.03305 -2.87982 -8.67983 100 123 124
-1.23711 -3.94146 -10.2281 15 22 27
4.76979 -3.06438 -8.67741 97 121 121
3.6244 0.426667 -8.48759 156 162 162
3.28086 2.01146 -8.35339 49 95 121
4.36719 -0.306768 -8.25943 103 132 145
3.86117 -2.70335 -8.76433 14 23 29
4.74391 -0.179186 -8.19706 48 52 61
2.35833 -4.07567 -10.6585 68 49 52
3.15327 -0.158784 -8.96571 95 99 49
3.53892 -0.787105 -8.69418 111 140 151
2.6979 2.103 -8.74404 138 143 142
0.430194 -3.98675 -11.2982 58 92 108
2.12838 -4.40753 -8.96969 168 176 179
-0.0763087 -4.08217 -11.1414 110 128 136
3.29504 -4.13562 -9.74917 87 105 112
4.7828 -1.82553 -8.2309 97 123 123
2.91804 1.16654 -8.85471 130 142 148
-0.394266 -4.03427 -10.6048 104 132 143
3.86397 -2.64777 -8.77644 31 42 47
4.66121 -2.79137 -8.59054 98 122 124
2.0922 -3.61944 -9.35994 73 74 77
2.84131 1.69101 -8.80223 76 109 127
3.33115 0.460779 -8.63223 155 158 152
4.45851 0.387295 -8.18532 127 135 138
3.70943 -1.07135 -8.63143 108 129 127
4.33832 -0.410594 -8.31094 102 120 130
2.77073 1.83219 -8.7962 139 144 145
4.37143 -2.6852 -8.46911 57 72 78
3.54351 2.16664 -8.09155 149 150 152
1.3014 -4.09093 -10.0219 108 100 81
3.26281 -1.80259 -9.01758 151 159 158
0.523855 -3.93624 -12.5589 31 66 91
-0.667885 -3.93119 -10.4091 66 100 117
4.69233 1.81341 -8.00704 135 138 143
3.12188 1.97799 -8.63484 42 99 126
3.67988 2.12169 -8.18443 149 153 156
3.00484 1.69462 -8.51948 58 104 130
2.94435 -4.09333 -10.6049 78 81 83
4.04249 -0.151844 -8.35483 134 136 141
4.11184 -2.49227 -8.64796 34 40 48
4.16162 1.62246 -8.06095 58 62 72
1.91747 -4.04142 -10.6833 92 83 80
0.548702 -3.97581 -11.2845 60 96 112
4.86987 -3.13125 -8.53883 34 46 55
3.9886 -1.31449 -8.56439 103 125 125
3.2768 -2.5778 -9.04905 158 164 163
4.46483 0.0116571 -8.23743 147 151 156
0.721167 -4.00799 -10.3656 91 109 121
1.65379 -3.9788 -12.1116 64 90 103
4.54031 -2.60143 -8.49506 96 121 121
3.78555 -2.28172 -8.74156 53 67 74
3.1091 2.02901 -8.52584 66 105 124
1.1968 -4.01737 -10.5357 61 98 115
4.08168 -2.91673 -8.77464 96 120 119
1.35316 0.0986423 -8.83518 118 147 144
-4.89504 -3.38943 -11.2309 38 19 13
1.36923 -4.01786 -9.34783 153 163 165
3.97899 -3.22234 -8.82121 38 53 61
-1.53771 -3.8707 -10.4229 39 47 50
4.03764 -2.91498 -8.69848 81 99 104
2.85093 2.01669 -8.6902 34 89 116
2.18467 0.792908 -8.99875 144 176 172
3.90634 -1.2362 -8.6208 97 123 119
4.24205 1.75773 -8.04956 147 149 153
3.03153 1.4044 -8.64425 27 88 116
4.69026 -2.63139 -8.32997 94 114 115
1.55715 0.285182 -8.83314 162 186 180
4.57277 -0.195048 -8.23721 106 120 127
2.93333 2.11695 -8.60594 64 107 125
2.88963 1.99097 -8.47422 39 81 106
-1.44702 -3.96076 -8.53148 93 89 93
3.77083 -1.46693 -8.60971 8 23 30
4.69545 -1.81335 -8.48499 99 124 126
3.40327 -4.90368 -9.27262 40 38 39
4.10146 2.14861 -8.01287 128 130 136
3.55125 1.84497 -8.07259 132 140 141
1.24377 -3.94546 -12.3063 46 73 94
-0.738873 -4.07021 -11.1627 62 96 111
-1.16501 -4.21955 -8.89821 0 1 5
3.47196 2.10312 -8.22988 149 152 153
-0.424794 -4.13348 -8.55104 4 5 7
4.43897 -0.478439 -8.30092 133 150 158
-0.156208 -4.01575 -8.64252 152 160 160
3.00385 1.84788 -8.53863 14 73 105
3.61148 0.252652 -8.56872 151 157 158
0.494459 -4.11097 -11.5272 100 119 132
3.65642 -3.44974 -8.98806 23 33 35
3.10304 1.83302 -8.56561 16 82 116
1.61518 0.285265 -8.83402 202 214 210
3.09713 1.94174 -8.38738 38 87 116
3.53257 0.529416 -8.59601 157 163 161
0.168428 -4.09515 -11.173 102 123 129
4.19498 -0.696042 -8.29979 157 163 166
3.19543 0.800021 -8.65225 121 123 124
1.90674 -4.12945 -9.10684 156 165 170
2.89694 2.06214 -8.61219 66 112 131
4.77141 0.422861 -8.13692 133 138 142
0.995434 -4.13745 -9.15364 160 168 171
3.12436 1.90833 -8.39303 41 98 125
3.75396 -2.92785 -8.85025 64 81 79
4.01378 -3.53609 -8.75648 21 32 38
2.42918 -4.11123 -10.2041 75 102 113
3.77432 1.99624 -8.14139 116 117 123
4.20018 -1.62276 -8.49867 101 125 122
1.407 -3.9456 -12.1353 47 81 100
2.65604 2.02915 -8.75065 138 142 142
2.80616 0.857343 -8.94514 170 179 176
0.614378 -3.93955 -8.20375 29 30 49
4.56749 -1.82595 -8.44766 102 128 127
1.6861 -4.43635 -8.92607 8 9 12
-0.355299 -3.8603 -12.6734 31 55 75
-4.87351 -2.96783 -11.1876 40 22 17
2.0975 -4.15553 -9.5181 56 59 65
-1.1062 -3.8202 -12.5283 34 51 67
3.86574 -3.07142 -8.90545 91 114 120
3.85968 -3.65004 -8.87496 9 22 30
3.41627 -5.04095 -9.34983 48 40 41
4.1467 2.07598 -8.00875 136 137 142
2.83639 -4.16651 -10.2245 65 92 99
3.81052 -0.966278 -7.69486 105 127 126
3.26194 -3.25623 -9.23089 155 165 166
1.44335 -4.09432 -9.14299 157 167 169
-1.42319 -2.69838 -15.9002 31 31 32
3.25129 -3.56259 -9.65789 100 105 108
3.66384 -2.85551 -8.88868 96 122 121
4.0226 1.38561 -8.1294 90 93 105
0.959837 -4.14786 -9.11873 162 170 173
2.85426 2.10425 -8.62192 49 98 123
1.62801 -4.27276 -8.39757 47 43 44
3.87294 0.293938 -8.36585 140 146 148
-0.0923449 -4.22504 -9.92475 145 148 153
0.925117 -3.99845 -10.4803 80 117 130
3.52547 -4.06097 -9.01753 119 134 132
3.40162 -3.48473 -9.40288 130 136 136
2.26854 -4.33333 -8.96351 155 163 166
-4.87057 -0.833173 -11.0685 46 30 25
3.82004 -2.86612 -8.79708 81 107 104
-1.88027 -3.76555 -10.3968 29 26 21
3.71093 0.230127 -8.41466 155 161 162
3.85647 0.23734 -8.38576 142 146 149
3.14511 2.14426 -8.37782 55 102 126
1.37369 -2.07939 -8.84521 137 143 141
4.02076 -3.47618 -8.69426 29 40 49
-0.964998 -4.07092 -8.87037 133 133 134
4.70949 -2.43393 -8.39131 78 102 98
3.64021 2.1425 -7.75079 147 150 152
4.4632 -2.84907 -8.67675 106 126 127
3.15405 -4.14167 -9.6865 85 115 125
4.71113 -3.79311 -8.53445 72 91 93
4.06323 -3.77479 -8.76788 86 112 114
-4.91942 -1.02609 -10.9349 33 24 22
-2.78854 -4.16419 -12.7809 20 16 10
0.439822 -4.60716 -9.30308 23 18 15
1.04538 -1.15614 -8.7958 110 132 129
0.743772 -4.01619 -9.18566 156 166 169
1.2198 -3.3697 -6.87207 77 80 94
-4.99583 -3.55936 -11.0404 1 5 8
3.43854 -4.18943 -9.30539 140 151 151
4.24063 -2.89253 -8.66019 71 88 89
1.46637 -4.17784 -9.14273 141 155 163
1.46907 -4.12551 -9.11566 146 158 165
2.85389 1.91175 -8.69535 24 84 115
4.1054 -0.210462 -8.27517 143 149 152
3.79632 -1.34434 -8.54469 32 41 48
1.58979 -4.12067 -9.20166 156 166 168
3.85731 -3.58961 -8.80832 11 26 29
4.36299 -2.8462 -8.63503 96 118 117
2.51826 -4.0069 -9.52778 82 111 120
-4.52977 -3.13049 -11.2698 4 5 7
3.84057 -3.12431 -8.9962 81 106 109
3.57182 -2.05297 -9.01025 106 131 128
0.58652 -3.98097 -9.19683 153 163 165
4.23494 -0.314308 -8.33177 83 117 131
4.4349 -0.545158 -8.33483 112 133 147
4.35794 -2.66741 -8.62297 89 113 113
1.17732 -4.26542 -8.14821 38 35 38
4.53429 0.612526 -8.20943 144 149 150
1.86569 -4.24125 -9.47919 158 168 170
-1.34152 -5.01833 -8.95261 31 22 17
2.76205 1.17746 -9.19779 168 176 173
4.34973 -2.18465 -8.5108 99 123 122
-4.8469 -0.666195 -10.9696 43 25 21
3.1021 -3.19099 -9.362 160 169 170
-0.0667157 -4.09753 -8.88499 157 163 164
1.12992 -3.95625 -9.1401 155 165 167
3.08251 1.6383 -8.51194 30 72 99
3.93475 -3.36826 -8.7911 49 63 61
2.47029 -3.06723 -9.23365 136 145 144
3.24073 -5.52595 -10.0622 30 28 28
3.23615 1.76737 -8.3991 47 101 129
